<svg xmlns="http://www.w3.org/2000/svg" width="384" height="384" viewBox="0 0 128 128">
<defs>
  <linearGradient id="glove" x1="0" y1="0" x2="0.8" y2="1"><stop stop-color="#ffffff"/><stop offset=".55" stop-color="#fff9e9"/><stop offset="1" stop-color="#edd9ac"/></linearGradient>
  <linearGradient id="mint" x1="0" y1="0" x2="0" y2="1"><stop stop-color="#b9f6da"/><stop offset=".5" stop-color="#74dcb5"/><stop offset="1" stop-color="#38ae8e"/></linearGradient>
  <linearGradient id="gold" x1="0" y1="0" x2=".6" y2="1"><stop stop-color="#fff49a"/><stop offset=".55" stop-color="#ffe05d"/><stop offset="1" stop-color="#edb431"/></linearGradient>
</defs>
<circle cx="54" cy="34" r="25" fill="#fff3b0" opacity=".6"/>
<circle cx="54" cy="34" r="17" fill="url(#gold)" stroke="#d5a43b" stroke-width="2.5"/>
<path d="M30 36A25 25 0 1 1 70 53" fill="none" stroke="#efc34e" stroke-width="4" stroke-linecap="round"/>
<circle cx="102" cy="32" r="16" fill="url(#gold)" stroke="#ddac3c" stroke-width="2"/>
<path d="M104 20L94 34H101L99 44L111 29H104Z" fill="#fffdf0" stroke="#c49329" stroke-width="1.4" stroke-linejoin="round"/>
<ellipse cx="71" cy="119" rx="31" ry="5" fill="#277c69" opacity=".13"/>
<path d="M46 89C40 82 34 73 31 66C28 59 30 54 35 54C40 54 43 61 46 64V36C46 24 62 24 62 36V57C64 49 75 50 77 59C82 51 91 56 91 64C99 59 105 67 103 79L100 94C98 106 88 113 73 113C61 112 53 101 46 89Z" fill="#236d64" opacity=".14" transform="translate(0 3)"/>
<path d="M46 89C40 82 34 73 31 66C28 59 30 54 35 54C40 54 43 61 46 64V36C46 24 62 24 62 36V57C64 49 75 50 77 59C82 51 91 56 91 64C99 59 105 67 103 79L100 94C98 106 88 113 73 113C61 112 53 101 46 89Z" fill="url(#glove)" stroke="#276c65" stroke-width="3.2" stroke-linejoin="round"/>
<path d="M62 57V72M77 60V74M91 65L90 77M46 65L51 76" fill="none" stroke="#79a193" stroke-width="2.4" stroke-linecap="round"/>
<path d="M51 53V37C51 33 54 31 56 33M35 60L39 67" fill="none" stroke="#ffffff" stroke-width="3.5" stroke-linecap="round"/>
<path d="M61 91Q73 97 88 91" fill="none" stroke="#dcc99e" stroke-width="2" stroke-linecap="round"/>
<rect x="55" y="105" width="43" height="15" rx="7.5" fill="url(#mint)" stroke="#276c65" stroke-width="3"/>
<path d="M62 109H88" stroke="#e3ffee" stroke-width="2.5" stroke-linecap="round"/>
</svg>
